<?xml version="1.0" encoding="UTF-8"?>
<svg id="Layer_1" xmlns="http://www.w3.org/2000/svg" version="1.1" viewBox="0 0 250 250">
  <!-- Generator: Adobe Illustrator 29.8.1, SVG Export Plug-In . SVG Version: 2.1.1 Build 2)  -->
  <path d="M79.23,67.32v-32.51c0-7.08-5.74-12.82-12.82-12.82h-16.25c-7.08,0-12.82,5.74-12.82,12.82v61.67h0c20.31,7.52,41.89-7.5,41.89-29.16Z"/>
  <path d="M37.34,110.15h0s0,105.05,0,105.05c0,7.08,5.74,12.82,12.82,12.82h16.25c7.08,0,12.82-5.74,12.82-12.82v-44.87c0-26.85-16.71-50.86-41.89-60.18Z"/>
  <g>
    <path d="M158.09,141.07c19.37,9.08,38.1,9.44,51.78,10.7,2.27-9.96,2.78-17.5,2.78-28.94,0-62.68-39.72-100.85-95.57-100.85h-12.21c-7.08,0-12.82,5.74-12.82,12.82v6.76c0,43.58,26.17,82.7,66.04,99.5Z"/>
    <path d="M158.09,154.86c-32.01-11.86-66.04,11.83-66.04,45.97v14.37c0,7.08,5.74,12.82,12.82,12.82h18.73c34.43,0,61.49-17.71,76.36-47.11-22.04-19.88-41.87-26.05-41.87-26.05Z"/>
  </g>
</svg>