<?xml version="1.0" encoding="UTF-8"?>
<svg id="Layer_1" xmlns="http://www.w3.org/2000/svg" version="1.1" viewBox="0 0 500 250">
  <!-- Generator: Adobe Illustrator 29.8.1, SVG Export Plug-In . SVG Version: 2.1.1 Build 2)  -->
  <g>
    <path d="M178.08,99.04v-23.13s24.85,0,24.85,0v23.13h-24.85ZM178.08,204.35v-94.03h24.85v94.03h-24.85Z"/>
    <path d="M324.48,204.35v-56.95c0-11.28-5.92-19.3-14.72-19.3s-15.86,8.6-15.86,20.07v56.19h-24.85v-56.57c0-15.1-4.01-18.92-14.91-18.92-9.94,0-15.1,6.12-15.1,18.35v57.14h-24.85v-94.03h23.32v13.76c6.31-12.42,15.1-16.25,27.52-16.25s18.92,4.01,26.18,14.91c5.16-10.32,13.57-14.91,25.42-14.91,18.92,0,32.11,13.76,32.11,31.34v65.17h-24.27Z"/>
    <path d="M381.05,163.83c.76,14.14,8.79,23.32,21.02,23.32,8.03,0,15.1-4.01,16.82-10.51h25.61c-5.73,19.3-21.21,30.2-41.28,30.2-31.34,0-47.02-17.2-47.02-51.22,0-29.05,16.63-47.78,45.49-47.78s44.15,18.73,44.15,56h-64.79ZM420.23,148.16c-.38-13.95-9.56-20.64-19.3-20.64s-18.16,7.64-19.11,20.64h38.41Z"/>
  </g>
  <g>
    <path d="M61.19,79.18v-25.83c0-5.63-4.56-10.19-10.19-10.19h-12.9c-5.63,0-10.19,4.56-10.19,10.19v48.99h0c16.13,5.97,33.28-5.96,33.28-23.16Z"/>
    <path d="M27.92,113.2h0s0,83.45,0,83.45c0,5.63,4.56,10.19,10.19,10.19h12.9c5.63,0,10.19-4.56,10.19-10.19v-35.64c0-21.33-13.28-40.4-33.28-47.81Z"/>
    <g>
      <path d="M123.84,137.76c15.39,7.21,30.26,7.5,41.14,8.5,1.8-7.91,2.21-13.9,2.21-22.99,0-49.79-31.55-80.11-75.92-80.11h-9.7c-5.63,0-10.19,4.56-10.19,10.19v5.37c0,34.62,20.79,65.7,52.46,79.04Z"/>
      <path d="M123.84,148.72c-25.43-9.42-52.46,9.4-52.46,36.51v11.41c0,5.63,4.56,10.19,10.19,10.19h14.88c27.35,0,48.84-14.07,60.66-37.42-17.51-15.79-33.26-20.69-33.26-20.69Z"/>
    </g>
  </g>
  <rect x="447.24" y="183.71" width="24.85" height="23.13" rx="11.56" ry="11.56"/>
</svg>